<svg width="77" height="76" viewBox="0 0 77 76" fill="none" xmlns="http://www.w3.org/2000/svg">
<path d="M54.5417 6.33325H22.4583C13.5988 6.33325 6.41667 13.4221 6.41667 22.1666V53.8332C6.41667 62.5778 13.5988 69.6666 22.4583 69.6666H54.5417C63.4012 69.6666 70.5833 62.5778 70.5833 53.8332V22.1666C70.5833 13.4221 63.4012 6.33325 54.5417 6.33325Z" stroke="white" stroke-width="2" stroke-linecap="round" stroke-linejoin="round"/>
<path d="M51.3333 36.005C51.7293 38.6404 51.2732 41.332 50.03 43.6969C48.7868 46.0617 46.8197 47.9795 44.4086 49.1773C41.9974 50.3751 39.265 50.792 36.6 50.3688C33.9349 49.9455 31.473 48.7036 29.5643 46.8197C27.6556 44.9357 26.3973 42.5057 25.9685 39.8753C25.5396 37.2449 25.962 34.548 27.1756 32.1682C28.3892 29.7883 30.3322 27.8468 32.7282 26.6197C35.1241 25.3927 37.8511 24.9425 40.5213 25.3333C43.2449 25.7319 45.7664 26.9846 47.7134 28.9063C49.6603 30.828 50.9295 33.3167 51.3333 36.005Z" stroke="white" stroke-width="2" stroke-linecap="round" stroke-linejoin="round"/>
<path d="M56.1458 20.5833H56.1781" stroke="white" stroke-width="2" stroke-linecap="round" stroke-linejoin="round"/>
</svg>
