<svg width="78" height="79" viewBox="0 0 78 79" fill="none" xmlns="http://www.w3.org/2000/svg">
<path d="M74.75 9.8749C71.6378 12.0983 68.1919 13.7989 64.545 14.9111C62.5877 12.6317 59.9863 11.0161 57.0929 10.2828C54.1994 9.54955 51.1534 9.734 48.3668 10.8112C45.5802 11.8884 43.1874 13.8065 41.5122 16.3059C39.8369 18.8053 38.96 21.7655 39 24.7861V28.0778C33.2886 28.2278 27.6291 26.9449 22.5258 24.3432C17.4224 21.7416 13.0335 17.9021 9.75 13.1666C9.75 13.1666 -3.25 42.7916 26 55.9582C19.3067 60.5599 11.3333 62.8672 3.25 62.5416C32.5 78.9999 68.25 62.5416 68.25 24.6874C68.247 23.7705 68.16 22.8559 67.99 21.9553C71.307 18.6422 73.6477 14.4592 74.75 9.8749Z" stroke="white" stroke-width="2" stroke-linecap="round" stroke-linejoin="round"/>
</svg>
