<svg width="678" height="113" viewBox="0 0 678 113" fill="none" xmlns="http://www.w3.org/2000/svg">
<path d="M92.9943 36H79.7841C79.0028 32.2003 77.6357 28.8622 75.6825 25.9858C73.7649 23.1094 71.4212 20.6946 68.6513 18.7415C65.9169 16.7528 62.8807 15.2614 59.5426 14.267C56.2045 13.2727 52.7244 12.7756 49.1023 12.7756C42.4972 12.7756 36.5135 14.4446 31.1513 17.7827C25.8246 21.1207 21.581 26.0391 18.4205 32.5376C15.2955 39.0362 13.733 47.0085 13.733 56.4545C13.733 65.9006 15.2955 73.8729 18.4205 80.3714C21.581 86.87 25.8246 91.7884 31.1513 95.1264C36.5135 98.4645 42.4972 100.134 49.1023 100.134C52.7244 100.134 56.2045 99.6364 59.5426 98.642C62.8807 97.6477 65.9169 96.174 68.6513 94.2209C71.4212 92.2322 73.7649 89.7997 75.6825 86.9233C77.6357 84.0114 79.0028 80.6733 79.7841 76.9091H92.9943C92 82.4844 90.1889 87.4737 87.5611 91.8771C84.9332 96.2805 81.6662 100.027 77.7599 103.116C73.8537 106.17 69.468 108.496 64.603 110.094C59.7734 111.692 54.6065 112.491 49.1023 112.491C39.7983 112.491 31.5241 110.219 24.2798 105.673C17.0355 101.128 11.3359 94.6648 7.18111 86.2841C3.02628 77.9034 0.948864 67.9602 0.948864 56.4545C0.948864 44.9489 3.02628 35.0057 7.18111 26.625C11.3359 18.2443 17.0355 11.7812 24.2798 7.23579C31.5241 2.69034 39.7983 0.41761 49.1023 0.41761C54.6065 0.41761 59.7734 1.21662 64.603 2.81463C69.468 4.41264 73.8537 6.75639 77.7599 9.84588C81.6662 12.8999 84.9332 16.6285 87.5611 21.032C90.1889 25.3999 92 30.3892 92.9943 36ZM127.551 1.90909V111H114.341V1.90909H127.551ZM240.544 1.90909V111H227.76L168.314 25.3466H167.249V111H154.038V1.90909H166.822L226.482 87.7756H227.547V1.90909H240.544ZM266.978 111V1.90909H332.816V13.6278H280.188V50.4886H329.407V62.2074H280.188V99.2812H333.668V111H266.978ZM356.626 1.90909H372.393L409.467 92.4631H410.746L447.819 1.90909H463.586V111H451.229V28.1165H450.163L416.072 111H404.14L370.05 28.1165H368.984V111H356.626V1.90909ZM494.548 111H480.699L520.755 1.90909H534.392L574.449 111H560.599L528 19.1676H527.147L494.548 111ZM499.662 68.3864H555.485V80.1051H499.662V68.3864Z" fill="white"/>
<path d="M677.946 1.90909V111H665.162L605.716 25.3466H604.651V111H591.441V1.90909H604.225L663.884 87.7756H664.949V1.90909H677.946Z" fill="#FFB800"/>
</svg>
